<svg width="40" height="40" viewBox="0 0 40 40" fill="none" xmlns="http://www.w3.org/2000/svg">
<path d="M20 13.3333C21.8334 13.3333 23.3334 11.8333 23.3334 9.99999C23.3334 8.16666 21.8334 6.66666 20 6.66666C18.1667 6.66666 16.6667 8.16666 16.6667 9.99999C16.6667 11.8333 18.1667 13.3333 20 13.3333ZM20 16.6667C18.1667 16.6667 16.6667 18.1667 16.6667 20C16.6667 21.8333 18.1667 23.3333 20 23.3333C21.8334 23.3333 23.3334 21.8333 23.3334 20C23.3334 18.1667 21.8334 16.6667 20 16.6667ZM20 26.6667C18.1667 26.6667 16.6667 28.1667 16.6667 30C16.6667 31.8333 18.1667 33.3333 20 33.3333C21.8334 33.3333 23.3334 31.8333 23.3334 30C23.3334 28.1667 21.8334 26.6667 20 26.6667Z" fill="black"/>
</svg>
