<svg width="30" height="31" viewBox="0 0 30 31" fill="none" xmlns="http://www.w3.org/2000/svg">
<path d="M23.925 16.67C23.97 16.295 24 15.905 24 15.5C24 15.095 23.97 14.705 23.91 14.33L26.445 12.35C26.67 12.17 26.73 11.84 26.595 11.585L24.195 7.43C24.045 7.16 23.73 7.07 23.46 7.16L20.475 8.36C19.845 7.88 19.185 7.49 18.45 7.19L18 4.01C17.955 3.71 17.7 3.5 17.4 3.5H12.6C12.3 3.5 12.06 3.71 12.015 4.01L11.565 7.19C10.83 7.49 10.155 7.895 9.54001 8.36L6.55501 7.16C6.28501 7.055 5.97001 7.16 5.82001 7.43L3.42001 11.585C3.27001 11.855 3.33001 12.17 3.57001 12.35L6.10501 14.33C6.04501 14.705 6.00001 15.11 6.00001 15.5C6.00001 15.89 6.03001 16.295 6.09001 16.67L3.55501 18.65C3.33001 18.83 3.27001 19.16 3.40501 19.415L5.80501 23.57C5.95501 23.84 6.27001 23.93 6.54001 23.84L9.52501 22.64C10.155 23.12 10.815 23.51 11.55 23.81L12 26.99C12.06 27.29 12.3 27.5 12.6 27.5H17.4C17.7 27.5 17.955 27.29 17.985 26.99L18.435 23.81C19.17 23.51 19.845 23.105 20.46 22.64L23.445 23.84C23.715 23.945 24.03 23.84 24.18 23.57L26.58 19.415C26.73 19.145 26.67 18.83 26.43 18.65L23.925 16.67ZM15 20C12.525 20 10.5 17.975 10.5 15.5C10.5 13.025 12.525 11 15 11C17.475 11 19.5 13.025 19.5 15.5C19.5 17.975 17.475 20 15 20Z" fill="white" fill-opacity="0.64"/>
</svg>
