<svg width="953" height="420" viewBox="0 0 953 420" fill="none" xmlns="http://www.w3.org/2000/svg">
<path d="M56.6284 375.022H947.784" stroke="white"/>
<path d="M56.6284 388.415V375.022" stroke="white"/>
<path d="M60.4388 399.26C60.4388 401.059 60.1316 402.395 59.5174 403.27C58.9031 404.144 57.943 404.581 56.637 404.581C55.3476 404.581 54.393 404.155 53.7732 403.303C53.1534 402.445 52.8325 401.167 52.8103 399.468V397.418C52.8103 395.641 53.1175 394.321 53.7317 393.458C54.346 392.595 55.3089 392.163 56.6204 392.163C57.9209 392.163 58.8782 392.581 59.4925 393.417C60.1067 394.247 60.4222 395.531 60.4388 397.268V399.26ZM58.9031 397.16C58.9031 395.86 58.7205 394.914 58.3553 394.321C57.99 393.724 57.4117 393.425 56.6204 393.425C55.8346 393.425 55.2618 393.721 54.9021 394.313C54.5424 394.905 54.3571 395.816 54.346 397.044V399.501C54.346 400.807 54.5341 401.773 54.9104 402.398C55.2923 403.018 55.8678 403.328 56.637 403.328C57.3951 403.328 57.9568 403.035 58.3221 402.448C58.6928 401.861 58.8865 400.937 58.9031 399.675V397.16Z" fill="white"/>
<path d="M155.646 388.415V375.022" stroke="white"/>
<path d="M156.924 404.415H155.38V394.18L152.284 395.318V393.923L156.683 392.271H156.924V404.415Z" fill="white"/>
<path d="M254.663 388.415V375.022" stroke="white"/>
<path d="M258.814 404.415H250.895V403.311L255.078 398.663C255.698 397.96 256.124 397.39 256.357 396.953C256.595 396.51 256.714 396.054 256.714 395.583C256.714 394.952 256.523 394.435 256.141 394.031C255.759 393.627 255.25 393.425 254.614 393.425C253.85 393.425 253.255 393.644 252.829 394.081C252.408 394.512 252.198 395.116 252.198 395.89H250.662C250.662 394.778 251.019 393.879 251.733 393.193C252.453 392.506 253.413 392.163 254.614 392.163C255.737 392.163 256.625 392.459 257.278 393.051C257.931 393.638 258.258 394.421 258.258 395.401C258.258 396.59 257.499 398.007 255.983 399.651L252.746 403.162H258.814V404.415Z" fill="white"/>
<path d="M353.68 388.415V375.022" stroke="white"/>
<path d="M352.145 397.625H353.299C354.024 397.614 354.594 397.423 355.009 397.052C355.424 396.682 355.631 396.181 355.631 395.55C355.631 394.133 354.926 393.425 353.515 393.425C352.851 393.425 352.319 393.616 351.921 393.998C351.528 394.374 351.332 394.875 351.332 395.5H349.796C349.796 394.543 350.145 393.749 350.842 393.118C351.545 392.481 352.436 392.163 353.515 392.163C354.655 392.163 355.548 392.465 356.196 393.068C356.843 393.671 357.167 394.51 357.167 395.583C357.167 396.109 356.995 396.618 356.652 397.111C356.315 397.603 355.853 397.971 355.266 398.215C355.93 398.425 356.442 398.773 356.802 399.26C357.167 399.747 357.35 400.342 357.35 401.045C357.35 402.13 356.995 402.99 356.287 403.627C355.579 404.263 354.657 404.581 353.523 404.581C352.388 404.581 351.464 404.274 350.75 403.66C350.042 403.046 349.688 402.235 349.688 401.228H351.232C351.232 401.864 351.439 402.373 351.854 402.755C352.27 403.137 352.826 403.328 353.523 403.328C354.264 403.328 354.832 403.134 355.225 402.747C355.617 402.359 355.814 401.803 355.814 401.078C355.814 400.376 355.598 399.836 355.166 399.46C354.735 399.083 354.112 398.89 353.299 398.879H352.145V397.625Z" fill="white"/>
<path d="M452.698 388.415V375.022" stroke="white"/>
<path d="M455.412 400.356H457.089V401.61H455.412V404.415H453.868V401.61H448.365V400.705L453.777 392.329H455.412V400.356ZM450.108 400.356H453.868V394.429L453.686 394.761L450.108 400.356Z" fill="white"/>
<path d="M551.715 388.415V375.022" stroke="white"/>
<path d="M548.652 398.356L549.267 392.329H555.459V393.749H550.57L550.205 397.044C550.797 396.695 551.469 396.521 552.222 396.521C553.323 396.521 554.197 396.886 554.845 397.617C555.492 398.342 555.816 399.324 555.816 400.564C555.816 401.809 555.478 402.791 554.803 403.51C554.134 404.224 553.196 404.581 551.989 404.581C550.921 404.581 550.05 404.285 549.375 403.693C548.699 403.101 548.315 402.282 548.221 401.236H549.673C549.767 401.928 550.014 402.451 550.412 402.805C550.811 403.154 551.336 403.328 551.989 403.328C552.703 403.328 553.262 403.084 553.666 402.597C554.076 402.11 554.28 401.438 554.28 400.58C554.28 399.772 554.059 399.125 553.616 398.638C553.179 398.145 552.595 397.899 551.865 397.899C551.195 397.899 550.669 398.046 550.288 398.339L549.881 398.671L548.652 398.356Z" fill="white"/>
<path d="M650.732 388.415V375.022" stroke="white"/>
<path d="M652.99 392.321V393.624H652.708C651.512 393.646 650.56 394.001 649.852 394.687C649.144 395.373 648.734 396.339 648.624 397.584C649.26 396.853 650.129 396.488 651.23 396.488C652.281 396.488 653.12 396.859 653.745 397.6C654.376 398.342 654.691 399.299 654.691 400.472C654.691 401.717 654.351 402.714 653.67 403.461C652.995 404.208 652.088 404.581 650.948 404.581C649.791 404.581 648.853 404.139 648.134 403.253C647.414 402.362 647.055 401.217 647.055 399.817V399.227C647.055 397.003 647.528 395.304 648.474 394.131C649.426 392.952 650.84 392.349 652.716 392.321H652.99ZM650.973 397.766C650.447 397.766 649.963 397.924 649.52 398.239C649.077 398.555 648.77 398.951 648.599 399.426V399.991C648.599 400.987 648.823 401.789 649.271 402.398C649.719 403.007 650.278 403.311 650.948 403.311C651.64 403.311 652.182 403.057 652.575 402.548C652.973 402.038 653.172 401.372 653.172 400.547C653.172 399.717 652.97 399.047 652.566 398.538C652.168 398.024 651.637 397.766 650.973 397.766Z" fill="white"/>
<path d="M749.75 388.415V375.022" stroke="white"/>
<path d="M753.784 393.193L748.778 404.415H747.168L752.157 393.591H745.616V392.329H753.784V393.193Z" fill="white"/>
<path d="M848.767 388.415V375.022" stroke="white"/>
<path d="M852.328 395.484C852.328 396.087 852.167 396.624 851.846 397.094C851.531 397.564 851.102 397.932 850.56 398.198C851.19 398.469 851.688 398.865 852.054 399.385C852.424 399.905 852.61 400.494 852.61 401.153C852.61 402.199 852.256 403.032 851.547 403.652C850.845 404.271 849.918 404.581 848.767 404.581C847.604 404.581 846.672 404.271 845.969 403.652C845.272 403.026 844.923 402.193 844.923 401.153C844.923 400.5 845.1 399.911 845.455 399.385C845.814 398.859 846.31 398.461 846.94 398.19C846.404 397.924 845.98 397.556 845.67 397.086C845.36 396.615 845.206 396.081 845.206 395.484C845.206 394.465 845.532 393.657 846.185 393.06C846.838 392.462 847.699 392.163 848.767 392.163C849.829 392.163 850.687 392.462 851.34 393.06C851.998 393.657 852.328 394.465 852.328 395.484ZM851.074 401.12C851.074 400.445 850.858 399.894 850.427 399.468C850.001 399.042 849.442 398.829 848.75 398.829C848.058 398.829 847.502 399.039 847.082 399.46C846.666 399.88 846.459 400.434 846.459 401.12C846.459 401.806 846.661 402.346 847.065 402.738C847.474 403.131 848.042 403.328 848.767 403.328C849.486 403.328 850.05 403.131 850.46 402.738C850.869 402.34 851.074 401.8 851.074 401.12ZM848.767 393.425C848.163 393.425 847.674 393.613 847.297 393.989C846.927 394.36 846.741 394.867 846.741 395.508C846.741 396.123 846.924 396.621 847.289 397.003C847.66 397.379 848.152 397.567 848.767 397.567C849.381 397.567 849.871 397.379 850.236 397.003C850.607 396.621 850.792 396.123 850.792 395.508C850.792 394.894 850.601 394.393 850.219 394.006C849.837 393.619 849.353 393.425 848.767 393.425Z" fill="white"/>
<path d="M947.784 388.415V375.022" stroke="white"/>
<path d="M949.901 399.103C949.58 399.485 949.195 399.792 948.747 400.024C948.304 400.257 947.817 400.373 947.286 400.373C946.589 400.373 945.98 400.201 945.46 399.858C944.945 399.515 944.547 399.034 944.264 398.414C943.982 397.788 943.841 397.099 943.841 396.347C943.841 395.539 943.993 394.811 944.298 394.164C944.607 393.516 945.045 393.021 945.609 392.678C946.173 392.335 946.832 392.163 947.585 392.163C948.78 392.163 949.721 392.612 950.407 393.508C951.099 394.399 951.444 395.616 951.444 397.16V397.609C951.444 399.96 950.98 401.679 950.05 402.763C949.12 403.842 947.717 404.396 945.841 404.424H945.543V403.129H945.866C947.134 403.106 948.108 402.777 948.788 402.141C949.469 401.499 949.84 400.486 949.901 399.103ZM947.535 399.103C948.049 399.103 948.523 398.945 948.954 398.63C949.391 398.314 949.71 397.924 949.909 397.459V396.845C949.909 395.838 949.69 395.019 949.253 394.388C948.816 393.757 948.263 393.442 947.593 393.442C946.918 393.442 946.375 393.702 945.966 394.222C945.556 394.737 945.352 395.417 945.352 396.264C945.352 397.088 945.548 397.769 945.941 398.306C946.34 398.837 946.871 399.103 947.535 399.103Z" fill="white"/>
<path d="M56.6284 17.8581V375.022" stroke="white"/>
<path d="M47.6871 375.022H56.6285" stroke="white"/>
<path d="M39.2733 359.08C39.2733 360.878 38.9662 362.215 38.352 363.089C37.7377 363.963 36.7776 364.401 35.4716 364.401C34.1822 364.401 33.2276 363.974 32.6078 363.122C31.988 362.264 31.6671 360.986 31.6449 359.287V357.237C31.6449 355.461 31.952 354.141 32.5663 353.277C33.1806 352.414 34.1435 351.983 35.455 351.983C36.7554 351.983 37.7128 352.4 38.327 353.236C38.9413 354.066 39.2567 355.35 39.2733 357.088V359.08ZM37.7377 356.98C37.7377 355.679 37.5551 354.733 37.1898 354.141C36.8246 353.543 36.2463 353.244 35.455 353.244C34.6692 353.244 34.0964 353.54 33.7367 354.132C33.377 354.725 33.1916 355.635 33.1806 356.863V359.32C33.1806 360.626 33.3687 361.592 33.745 362.217C34.1269 362.837 34.7024 363.147 35.4716 363.147C36.2297 363.147 36.7914 362.854 37.1566 362.267C37.5274 361.681 37.7211 360.756 37.7377 359.495V356.98Z" fill="white"/>
<path d="M47.6877 285.731H56.6291" stroke="white"/>
<path d="M20.5222 274.944H12.6033V273.84L16.7869 269.191C17.4066 268.488 17.8328 267.918 18.0652 267.481C18.3031 267.038 18.4221 266.582 18.4221 266.111C18.4221 265.481 18.2312 264.963 17.8494 264.559C17.4675 264.155 16.9584 263.953 16.322 263.953C15.5583 263.953 14.9634 264.172 14.5373 264.609C14.1168 265.041 13.9065 265.644 13.9065 266.419H12.3708C12.3708 265.306 12.7278 264.407 13.4416 263.721C14.161 263.035 15.1212 262.692 16.322 262.692C17.4454 262.692 18.3336 262.988 18.9866 263.58C19.6396 264.166 19.9661 264.949 19.9661 265.929C19.9661 267.119 19.2079 268.535 17.6916 270.179L14.4543 273.69H20.5222V274.944ZM22.8547 268.884L23.469 262.858H29.6614V264.277H24.7722L24.407 267.572C24.9991 267.224 25.6715 267.049 26.4241 267.049C27.5253 267.049 28.3996 267.415 29.0471 268.145C29.6946 268.87 30.0183 269.852 30.0183 271.092C30.0183 272.337 29.6807 273.319 29.0056 274.039C28.336 274.753 27.398 275.11 26.1916 275.11C25.1236 275.11 24.252 274.813 23.5769 274.221C22.9018 273.629 22.5172 272.81 22.4231 271.764H23.8757C23.9698 272.456 24.2161 272.979 24.6145 273.333C25.0129 273.682 25.5386 273.856 26.1916 273.856C26.9055 273.856 27.4644 273.613 27.8684 273.126C28.2779 272.639 28.4827 271.966 28.4827 271.109C28.4827 270.301 28.2613 269.653 27.8186 269.166C27.3814 268.674 26.7976 268.427 26.0671 268.427C25.3975 268.427 24.8718 268.574 24.49 268.867L24.0832 269.199L22.8547 268.884ZM39.2737 269.789C39.2737 271.587 38.9665 272.924 38.3523 273.798C37.738 274.672 36.7779 275.11 35.4719 275.11C34.1825 275.11 33.2279 274.683 32.6081 273.831C31.9883 272.973 31.6674 271.695 31.6453 269.996V267.946C31.6453 266.17 31.9524 264.85 32.5666 263.986C33.1809 263.123 34.1438 262.692 35.4553 262.692C36.7558 262.692 37.7131 263.109 38.3274 263.945C38.9416 264.775 39.2571 266.059 39.2737 267.797V269.789ZM37.738 267.689C37.738 266.388 37.5554 265.442 37.1902 264.85C36.8249 264.252 36.2467 263.953 35.4553 263.953C34.6695 263.953 34.0967 264.249 33.737 264.841C33.3773 265.434 33.192 266.344 33.1809 267.572V270.029C33.1809 271.335 33.369 272.301 33.7453 272.926C34.1272 273.546 34.7027 273.856 35.4719 273.856C36.23 273.856 36.7917 273.563 37.157 272.976C37.5277 272.39 37.7214 271.465 37.738 270.204V267.689Z" fill="white"/>
<path d="M47.6877 196.44H56.6291" stroke="white"/>
<path d="M13.3088 179.593L13.9231 173.567H20.1155V174.986H15.2263L14.8611 178.282C15.4532 177.933 16.1256 177.759 16.8782 177.759C17.9794 177.759 18.8537 178.124 19.5012 178.854C20.1487 179.579 20.4724 180.562 20.4724 181.801C20.4724 183.046 20.1348 184.028 19.4597 184.748C18.7901 185.462 17.8521 185.819 16.6457 185.819C15.5777 185.819 14.7061 185.523 14.031 184.93C13.3559 184.338 12.9713 183.519 12.8772 182.473H14.3298C14.4239 183.165 14.6702 183.688 15.0686 184.042C15.467 184.391 15.9927 184.565 16.6457 184.565C17.3596 184.565 17.9185 184.322 18.3225 183.835C18.732 183.348 18.9368 182.675 18.9368 181.818C18.9368 181.01 18.7154 180.362 18.2727 179.875C17.8355 179.383 17.2517 179.137 16.5212 179.137C15.8516 179.137 15.3259 179.283 14.9441 179.576L14.5373 179.909L13.3088 179.593ZM29.7278 180.498C29.7278 182.296 29.4206 183.633 28.8064 184.507C28.1921 185.381 27.232 185.819 25.926 185.819C24.6366 185.819 23.682 185.393 23.0622 184.54C22.4425 183.683 22.1215 182.404 22.0994 180.705V178.655C22.0994 176.879 22.4065 175.559 23.0207 174.696C23.635 173.832 24.5979 173.401 25.9094 173.401C27.2099 173.401 28.1672 173.819 28.7815 174.654C29.3957 175.484 29.7112 176.768 29.7278 178.506V180.498ZM28.1921 178.398C28.1921 177.097 28.0095 176.151 27.6443 175.559C27.279 174.961 26.7008 174.662 25.9094 174.662C25.1236 174.662 24.5508 174.958 24.1911 175.551C23.8314 176.143 23.6461 177.053 23.635 178.282V180.739C23.635 182.045 23.8231 183.01 24.1994 183.636C24.5813 184.255 25.1568 184.565 25.926 184.565C26.6842 184.565 27.2458 184.272 27.6111 183.685C27.9818 183.099 28.1755 182.175 28.1921 180.913V178.398ZM39.2737 180.498C39.2737 182.296 38.9665 183.633 38.3523 184.507C37.738 185.381 36.7779 185.819 35.4719 185.819C34.1825 185.819 33.2279 185.393 32.6081 184.54C31.9883 183.683 31.6674 182.404 31.6453 180.705V178.655C31.6453 176.879 31.9524 175.559 32.5666 174.696C33.1809 173.832 34.1438 173.401 35.4553 173.401C36.7558 173.401 37.7131 173.819 38.3274 174.654C38.9416 175.484 39.2571 176.768 39.2737 178.506V180.498ZM37.738 178.398C37.738 177.097 37.5554 176.151 37.1902 175.559C36.8249 174.961 36.2467 174.662 35.4553 174.662C34.6695 174.662 34.0967 174.958 33.737 175.551C33.3773 176.143 33.192 177.053 33.1809 178.282V180.739C33.1809 182.045 33.369 183.01 33.7453 183.636C34.1272 184.255 34.7027 184.565 35.4719 184.565C36.23 184.565 36.7917 184.272 37.157 183.685C37.5277 183.099 37.7214 182.175 37.738 180.913V178.398Z" fill="white"/>
<path d="M47.6877 107.149H56.6291" stroke="white"/>
<path d="M20.406 85.1391L15.4006 96.3618H13.7903L18.779 85.5376H12.238V84.2758H20.406V85.1391ZM22.8547 90.3022L23.469 84.2758H29.6614V85.6953H24.7722L24.407 88.9907C24.9991 88.6421 25.6715 88.4677 26.4241 88.4677C27.5253 88.4677 28.3996 88.833 29.0471 89.5634C29.6946 90.2884 30.0183 91.2706 30.0183 92.5102C30.0183 93.7553 29.6807 94.7376 29.0056 95.457C28.336 96.1709 27.398 96.5278 26.1916 96.5278C25.1236 96.5278 24.252 96.2317 23.5769 95.6396C22.9018 95.0475 22.5172 94.2285 22.4231 93.1826H23.8757C23.9698 93.8743 24.2161 94.3973 24.6145 94.7514C25.0129 95.1001 25.5386 95.2744 26.1916 95.2744C26.9055 95.2744 27.4644 95.0309 27.8684 94.5439C28.2779 94.0569 28.4827 93.3846 28.4827 92.5268C28.4827 91.7189 28.2613 91.0714 27.8186 90.5844C27.3814 90.0919 26.7976 89.8457 26.0671 89.8457C25.3975 89.8457 24.8718 89.9923 24.49 90.2856L24.0832 90.6176L22.8547 90.3022ZM39.2737 91.207C39.2737 93.0055 38.9665 94.3419 38.3523 95.2163C37.738 96.0906 36.7779 96.5278 35.4719 96.5278C34.1825 96.5278 33.2279 96.1017 32.6081 95.2495C31.9883 94.3917 31.6674 93.1134 31.6453 91.4145V89.3642C31.6453 87.5879 31.9524 86.268 32.5666 85.4048C33.1809 84.5415 34.1438 84.1098 35.4553 84.1098C36.7558 84.1098 37.7131 84.5276 38.3274 85.3633C38.9416 86.1933 39.2571 87.4772 39.2737 89.2148V91.207ZM37.738 89.1069C37.738 87.8064 37.5554 86.8602 37.1902 86.268C36.8249 85.6704 36.2467 85.3716 35.4553 85.3716C34.6695 85.3716 34.0967 85.6676 33.737 86.2597C33.3773 86.8519 33.192 87.7622 33.1809 88.9907V91.4477C33.1809 92.7537 33.369 93.7194 33.7453 94.3447C34.1272 94.9645 34.7027 95.2744 35.4719 95.2744C36.23 95.2744 36.7917 94.9811 37.157 94.3945C37.5277 93.8079 37.7214 92.8838 37.738 91.622V89.1069Z" fill="white"/>
<path d="M47.6871 17.8581H56.6285" stroke="white"/>
<path d="M8.10384 16H6.55989V5.76514L3.4637 6.90234V5.50781L7.86312 3.85596H8.10384V16ZM20.1815 10.8452C20.1815 12.6437 19.8743 13.9801 19.2601 14.8545C18.6458 15.7288 17.6857 16.166 16.3797 16.166C15.0903 16.166 14.1357 15.7399 13.5159 14.8877C12.8962 14.0299 12.5752 12.7516 12.5531 11.0527V9.00244C12.5531 7.22607 12.8602 5.90625 13.4744 5.04297C14.0887 4.17969 15.0516 3.74805 16.3631 3.74805C17.6636 3.74805 18.6209 4.16585 19.2352 5.00146C19.8494 5.83154 20.1649 7.1154 20.1815 8.85303V10.8452ZM18.6458 8.74512C18.6458 7.44466 18.4632 6.49837 18.098 5.90625C17.7327 5.30859 17.1545 5.00977 16.3631 5.00977C15.5773 5.00977 15.0046 5.30583 14.6449 5.89795C14.2852 6.49007 14.0998 7.40039 14.0887 8.62891V11.0859C14.0887 12.3919 14.2769 13.3576 14.6532 13.9829C15.035 14.6027 15.6105 14.9126 16.3797 14.9126C17.1379 14.9126 17.6995 14.6193 18.0648 14.0327C18.4355 13.4461 18.6292 12.522 18.6458 11.2603V8.74512ZM29.7274 10.8452C29.7274 12.6437 29.4202 13.9801 28.806 14.8545C28.1917 15.7288 27.2316 16.166 25.9256 16.166C24.6362 16.166 23.6816 15.7399 23.0618 14.8877C22.4421 14.0299 22.1211 12.7516 22.099 11.0527V9.00244C22.099 7.22607 22.4061 5.90625 23.0203 5.04297C23.6346 4.17969 24.5975 3.74805 25.909 3.74805C27.2095 3.74805 28.1668 4.16585 28.7811 5.00146C29.3953 5.83154 29.7108 7.1154 29.7274 8.85303V10.8452ZM28.1917 8.74512C28.1917 7.44466 28.0091 6.49837 27.6439 5.90625C27.2786 5.30859 26.7004 5.00977 25.909 5.00977C25.1232 5.00977 24.5505 5.30583 24.1908 5.89795C23.8311 6.49007 23.6457 7.40039 23.6346 8.62891V11.0859C23.6346 12.3919 23.8228 13.3576 24.1991 13.9829C24.5809 14.6027 25.1564 14.9126 25.9256 14.9126C26.6838 14.9126 27.2454 14.6193 27.6107 14.0327C27.9814 13.4461 28.1751 12.522 28.1917 11.2603V8.74512ZM39.2733 10.8452C39.2733 12.6437 38.9661 13.9801 38.3519 14.8545C37.7376 15.7288 36.7775 16.166 35.4715 16.166C34.1821 16.166 33.2275 15.7399 32.6077 14.8877C31.988 14.0299 31.667 12.7516 31.6449 11.0527V9.00244C31.6449 7.22607 31.952 5.90625 32.5662 5.04297C33.1805 4.17969 34.1434 3.74805 35.4549 3.74805C36.7554 3.74805 37.7127 4.16585 38.327 5.00146C38.9412 5.83154 39.2567 7.1154 39.2733 8.85303V10.8452ZM37.7376 8.74512C37.7376 7.44466 37.555 6.49837 37.1898 5.90625C36.8245 5.30859 36.2463 5.00977 35.4549 5.00977C34.6691 5.00977 34.0964 5.30583 33.7367 5.89795C33.377 6.49007 33.1916 7.40039 33.1805 8.62891V11.0859C33.1805 12.3919 33.3687 13.3576 33.745 13.9829C34.1268 14.6027 34.7023 14.9126 35.4715 14.9126C36.2297 14.9126 36.7913 14.6193 37.1566 14.0327C37.5273 13.4461 37.721 12.522 37.7376 11.2603V8.74512Z" fill="white"/>
<path d="M56.6284 371.45L155.646 328.233L254.663 227.156L353.68 92.1482L452.698 178.582L551.715 321.804L650.732 268.587L749.749 78.9331L848.767 277.873L947.784 222.87V375.022H848.767H749.749H650.732H551.715H452.698H353.68H254.663H155.646H56.6284V371.45Z" fill="#BB6BD9"/>
<path d="M56.6284 378.147C59.0975 378.147 61.0991 375.149 61.0991 371.45C61.0991 367.752 59.0975 364.753 56.6284 364.753C54.1593 364.753 52.1577 367.752 52.1577 371.45C52.1577 375.149 54.1593 378.147 56.6284 378.147Z" fill="#BB6BD9"/>
<path d="M155.646 334.93C158.115 334.93 160.116 331.932 160.116 328.233C160.116 324.535 158.115 321.537 155.646 321.537C153.177 321.537 151.175 324.535 151.175 328.233C151.175 331.932 153.177 334.93 155.646 334.93Z" fill="#BB6BD9"/>
<path d="M254.663 233.853C257.132 233.853 259.134 230.855 259.134 227.156C259.134 223.457 257.132 220.459 254.663 220.459C252.194 220.459 250.192 223.457 250.192 227.156C250.192 230.855 252.194 233.853 254.663 233.853Z" fill="#BB6BD9"/>
<path d="M353.68 98.8451C356.15 98.8451 358.151 95.8468 358.151 92.1483C358.151 88.4497 356.15 85.4515 353.68 85.4515C351.211 85.4515 349.21 88.4497 349.21 92.1483C349.21 95.8468 351.211 98.8451 353.68 98.8451Z" fill="#BB6BD9"/>
<path d="M452.698 185.279C455.167 185.279 457.169 182.28 457.169 178.582C457.169 174.883 455.167 171.885 452.698 171.885C450.229 171.885 448.227 174.883 448.227 178.582C448.227 182.28 450.229 185.279 452.698 185.279Z" fill="#BB6BD9"/>
<path d="M551.715 328.501C554.184 328.501 556.185 325.503 556.185 321.805C556.185 318.106 554.184 315.108 551.715 315.108C549.246 315.108 547.244 318.106 547.244 321.805C547.244 325.503 549.246 328.501 551.715 328.501Z" fill="#BB6BD9"/>
<path d="M650.732 275.284C653.201 275.284 655.203 272.286 655.203 268.587C655.203 264.889 653.201 261.89 650.732 261.89C648.263 261.89 646.261 264.889 646.261 268.587C646.261 272.286 648.263 275.284 650.732 275.284Z" fill="#BB6BD9"/>
<path d="M749.749 85.63C752.218 85.63 754.22 82.6317 754.22 78.9332C754.22 75.2346 752.218 72.2364 749.749 72.2364C747.28 72.2364 745.279 75.2346 745.279 78.9332C745.279 82.6317 747.28 85.63 749.749 85.63Z" fill="#BB6BD9"/>
<path d="M848.767 284.57C851.236 284.57 853.237 281.572 853.237 277.873C853.237 274.175 851.236 271.176 848.767 271.176C846.297 271.176 844.296 274.175 844.296 277.873C844.296 281.572 846.297 284.57 848.767 284.57Z" fill="#BB6BD9"/>
<path d="M947.784 229.567C950.253 229.567 952.255 226.569 952.255 222.87C952.255 219.172 950.253 216.173 947.784 216.173C945.315 216.173 943.313 219.172 943.313 222.87C943.313 226.569 945.315 229.567 947.784 229.567Z" fill="#BB6BD9"/>
<path d="M56.6284 236.442L155.646 103.22L254.663 351.806L353.68 140.008L452.698 156.795L551.715 260.372L650.732 21.7867L749.749 75.3613L848.767 312.875L947.784 200.726V375.021H848.767H749.749H650.732H551.715H452.698H353.68H254.663H155.646H56.6284V236.442Z" fill="#9B51E0" fill-opacity="0.6"/>
<path d="M56.6284 243.139C59.0975 243.139 61.0991 240.141 61.0991 236.442C61.0991 232.743 59.0975 229.745 56.6284 229.745C54.1593 229.745 52.1577 232.743 52.1577 236.442C52.1577 240.141 54.1593 243.139 56.6284 243.139Z" fill="#9B51E0" fill-opacity="0.6"/>
<path d="M155.646 109.917C158.115 109.917 160.116 106.919 160.116 103.22C160.116 99.5215 158.115 96.5232 155.646 96.5232C153.177 96.5232 151.175 99.5215 151.175 103.22C151.175 106.919 153.177 109.917 155.646 109.917Z" fill="#9B51E0" fill-opacity="0.6"/>
<path d="M254.663 358.503C257.132 358.503 259.134 355.505 259.134 351.806C259.134 348.108 257.132 345.109 254.663 345.109C252.194 345.109 250.192 348.108 250.192 351.806C250.192 355.505 252.194 358.503 254.663 358.503Z" fill="#9B51E0" fill-opacity="0.6"/>
<path d="M353.68 146.705C356.15 146.705 358.151 143.706 358.151 140.008C358.151 136.309 356.15 133.311 353.68 133.311C351.211 133.311 349.21 136.309 349.21 140.008C349.21 143.706 351.211 146.705 353.68 146.705Z" fill="#9B51E0" fill-opacity="0.6"/>
<path d="M452.698 163.491C455.167 163.491 457.169 160.493 457.169 156.795C457.169 153.096 455.167 150.098 452.698 150.098C450.229 150.098 448.227 153.096 448.227 156.795C448.227 160.493 450.229 163.491 452.698 163.491Z" fill="#9B51E0" fill-opacity="0.6"/>
<path d="M551.715 267.069C554.184 267.069 556.185 264.071 556.185 260.372C556.185 256.674 554.184 253.675 551.715 253.675C549.246 253.675 547.244 256.674 547.244 260.372C547.244 264.071 549.246 267.069 551.715 267.069Z" fill="#9B51E0" fill-opacity="0.6"/>
<path d="M650.732 28.4836C653.201 28.4836 655.203 25.4854 655.203 21.7868C655.203 18.0883 653.201 15.09 650.732 15.09C648.263 15.09 646.261 18.0883 646.261 21.7868C646.261 25.4854 648.263 28.4836 650.732 28.4836Z" fill="#9B51E0" fill-opacity="0.6"/>
<path d="M749.749 82.0582C752.218 82.0582 754.22 79.06 754.22 75.3614C754.22 71.6629 752.218 68.6646 749.749 68.6646C747.28 68.6646 745.279 71.6629 745.279 75.3614C745.279 79.06 747.28 82.0582 749.749 82.0582Z" fill="#9B51E0" fill-opacity="0.6"/>
<path d="M848.766 319.572C851.236 319.572 853.237 316.574 853.237 312.875C853.237 309.177 851.236 306.178 848.766 306.178C846.297 306.178 844.296 309.177 844.296 312.875C844.296 316.574 846.297 319.572 848.766 319.572Z" fill="#9B51E0" fill-opacity="0.6"/>
<path d="M947.784 207.423C950.253 207.423 952.255 204.424 952.255 200.726C952.255 197.027 950.253 194.029 947.784 194.029C945.315 194.029 943.313 197.027 943.313 200.726C943.313 204.424 945.315 207.423 947.784 207.423Z" fill="#9B51E0" fill-opacity="0.6"/>
</svg>
